<svg width="82" height="82" viewBox="0 0 82 82" fill="none" xmlns="http://www.w3.org/2000/svg">
<path d="M40.9668 80.9186C18.8799 80.9186 1 63.0421 1 40.9593C1 18.8765 18.8799 1 40.9668 1C63.0537 1 80.9336 18.8765 80.9336 40.9593C81.144 63.0421 63.0537 80.9186 40.9668 80.9186Z" stroke="white" stroke-width="1.5" stroke-miterlimit="10"/>
<path d="M34.8666 65.1452H44.7531V40.749H51.4844L52.1154 32.5468H44.7531C44.7531 32.5468 44.7531 29.3922 44.7531 27.92C44.7531 26.0272 45.1738 25.1859 47.067 25.1859C48.5395 25.1859 52.3258 25.1859 52.3258 25.1859V16.7734C52.3258 16.7734 46.8567 16.7734 45.5945 16.7734C38.4426 16.7734 35.077 19.9281 35.077 26.0272C35.077 31.285 35.077 32.5468 35.077 32.5468H30.0285V40.749H35.077V65.1452H34.8666Z" fill="white"/>
</svg>
