<svg width="82" height="82" viewBox="0 0 82 82" fill="none" xmlns="http://www.w3.org/2000/svg">
<path d="M40.9668 80.9186C18.8799 80.9186 1 63.0421 1 40.9593C1 18.8765 18.8799 1 40.9668 1C63.0537 1 80.9336 18.8765 80.9336 40.9593C80.9336 63.0421 63.0537 80.9186 40.9668 80.9186Z" stroke="white" stroke-width="1.5" stroke-miterlimit="10"/>
<path d="M40.9668 22.8724C46.8566 22.8724 47.4877 22.8724 49.8016 23.0827C51.9051 23.0827 53.1672 23.5033 53.7983 23.924C54.85 24.3446 55.4811 24.7652 56.3225 25.6065C57.1639 26.4477 57.5846 27.0786 58.0053 28.1302C58.2156 28.9714 58.6363 30.023 58.8467 32.1261C58.8467 34.4396 59.057 35.0705 59.057 40.9592C59.057 46.848 59.057 47.4789 58.8467 49.7923C58.8467 51.8955 58.426 53.1573 58.0053 53.7883C57.5846 54.8398 57.1639 55.4708 56.3225 56.312C55.4811 57.1533 54.85 57.5739 53.7983 57.9945C52.9569 58.2048 51.9051 58.6254 49.8016 58.8358C47.4877 58.8358 46.8566 59.0461 40.9668 59.0461C35.0769 59.0461 34.4459 59.0461 32.132 58.8358C30.0285 58.8358 28.7664 58.4151 28.1353 57.9945C27.0836 57.5739 26.4525 57.1533 25.6111 56.312C24.7697 55.4708 24.349 54.8398 23.9283 53.7883C23.718 52.947 23.2972 51.8955 23.0869 49.7923C22.8765 47.4789 22.8765 46.848 22.8765 40.9592C22.8765 35.0705 22.8765 34.4396 23.0869 32.1261C23.0869 30.023 23.5076 28.7611 23.9283 28.1302C24.349 27.0786 24.7697 26.4477 25.6111 25.6065C26.4525 24.7652 27.0836 24.3446 28.1353 23.924C28.9767 23.7136 30.0285 23.293 32.132 23.0827C34.2355 22.8724 35.0769 22.8724 40.9668 22.8724ZM40.9668 18.8765C35.0769 18.8765 34.2355 18.8765 31.9217 19.0868C29.6078 19.2971 27.925 19.5074 26.6629 20.1383C25.1904 20.7693 23.9283 21.4002 22.8765 22.6621C21.6144 23.924 20.9834 25.1858 20.3523 26.4477C19.7213 27.9199 19.5109 29.3921 19.3006 31.7055C19.0902 34.0189 19.0902 34.8602 19.0902 40.7489C19.0902 46.6377 19.0902 47.4789 19.3006 49.7923C19.5109 52.1058 19.7213 53.7883 20.3523 55.0501C20.9834 56.5223 21.6144 57.7842 22.8765 58.8358C24.1387 60.0976 25.4008 60.7286 26.6629 61.3595C28.1353 61.9904 29.6078 62.2008 31.9217 62.4111C34.2355 62.6214 35.0769 62.6214 40.9668 62.6214C46.8566 62.6214 47.6981 62.6214 50.0119 62.4111C52.3258 62.2008 54.0086 61.9904 55.2707 61.3595C56.7432 60.7286 58.0053 60.0976 59.057 58.8358C60.3192 57.5739 60.9502 56.312 61.5813 55.0501C62.2123 53.578 62.4227 52.1058 62.633 49.7923C62.8434 47.4789 62.8434 46.6377 62.8434 40.7489C62.8434 34.8602 62.8434 34.0189 62.633 31.7055C62.4227 29.3921 62.2123 27.7096 61.5813 26.4477C60.9502 24.9755 60.3192 23.7136 59.057 22.6621C57.7949 21.4002 56.5328 20.7693 55.2707 20.1383C53.7983 19.5074 52.3258 19.2971 50.0119 19.0868C47.4877 19.0868 46.8566 18.8765 40.9668 18.8765Z" fill="white"/>
<path d="M40.9668 29.6025C34.6562 29.6025 29.6078 34.65 29.6078 40.9594C29.6078 47.2688 34.6562 52.3162 40.9668 52.3162C47.2773 52.3162 52.3258 47.2688 52.3258 40.9594C52.1154 34.65 47.067 29.6025 40.9668 29.6025ZM40.9668 48.3203C36.9701 48.3203 33.6045 44.9553 33.6045 40.9594C33.6045 36.9635 36.9701 33.5985 40.9668 33.5985C44.9635 33.5985 48.3291 36.9635 48.3291 40.9594C48.1188 44.9553 44.9635 48.3203 40.9668 48.3203Z" fill="white"/>
<path d="M55.2707 29.1818C55.2707 30.654 54.0086 31.9159 52.5361 31.9159C51.0637 31.9159 49.8015 30.654 49.8015 29.1818C49.8015 27.7096 51.0637 26.4478 52.5361 26.4478C54.0086 26.6581 55.2707 27.7096 55.2707 29.1818Z" fill="white"/>
</svg>
