<svg width="82" height="82" viewBox="0 0 82 82" fill="none" xmlns="http://www.w3.org/2000/svg">
<path d="M40.9668 80.9186C18.8799 80.9186 1 63.042 1 40.9593C1 18.8765 18.8799 1 40.9668 1C63.0538 1 80.9336 18.8765 80.9336 40.9593C80.9336 62.8317 63.0538 80.9186 40.9668 80.9186Z" stroke="white" stroke-width="1.5" stroke-miterlimit="10"/>
<path fill-rule="evenodd" clip-rule="evenodd" d="M62.8434 39.6974C62.6331 28.1302 52.9569 18.8765 41.3875 18.8765C29.8182 18.8765 20.3524 27.9199 19.9317 39.2768C19.9317 39.4871 19.9317 39.9077 19.9317 40.118C19.9317 44.1139 20.9834 47.8996 23.0869 51.2646L19.3006 62.8317L31.2907 59.0461C34.4459 60.7286 38.0219 61.7802 41.8083 61.7802C53.7983 61.7802 63.2641 52.1058 63.2641 40.3283C62.8434 40.118 62.8434 39.9077 62.8434 39.6974ZM41.3875 58.2048C37.6012 58.2048 34.2356 57.1533 31.501 55.2605L24.5594 57.5739L26.8733 50.8439C24.7698 47.8995 23.5076 44.3242 23.5076 40.3283C23.5076 39.6974 23.5076 39.0664 23.5076 38.6458C24.3491 29.6024 32.1321 22.4518 41.5979 22.4518C51.0637 22.4518 58.8467 29.8127 59.6881 39.0664C59.6881 39.4871 59.6881 39.9077 59.6881 40.5386C59.4778 50.213 51.2741 58.2048 41.3875 58.2048Z" fill="white"/>
<path fill-rule="evenodd" clip-rule="evenodd" d="M51.2741 44.5346C50.643 44.3243 48.1188 43.0625 47.6981 42.8521C47.2774 42.6418 46.8567 42.6418 46.436 43.0624C46.0153 43.4831 44.9635 44.7449 44.7532 45.1656C44.5428 45.5862 44.1221 45.5862 43.7014 45.3759C43.2807 45.1656 41.3875 44.5346 39.4944 42.8521C38.0219 41.38 36.7598 39.6974 36.5494 39.2768C36.3391 38.8562 36.5494 38.4356 36.7598 38.2253C36.9701 38.015 37.1805 37.5943 37.6012 37.384L37.8116 37.1737C38.0219 36.9634 38.0219 36.7531 38.2323 36.5428C38.4426 36.1221 38.2323 35.9118 38.2323 35.7015C38.0219 35.4912 36.9702 32.7571 36.5494 31.7056C36.1287 30.654 35.708 30.8643 35.2873 30.8643C35.077 30.8643 34.6563 30.8643 34.2356 30.8643C33.8149 30.8643 33.3942 31.0746 32.7631 31.4953C32.3424 31.9159 30.8699 33.3881 30.8699 35.9118C30.8699 36.5428 31.0803 37.1737 31.0803 37.5943C31.7114 39.4871 32.7631 40.9593 32.9735 41.1696C33.1838 41.5903 36.5494 47.0584 42.0186 49.1615C47.4877 51.2646 47.4877 50.6337 48.3291 50.4234C49.3809 50.4234 51.4844 49.1615 51.9051 47.8996C52.3258 46.6377 52.3258 45.5862 52.1155 45.3759C52.1155 44.9553 51.6948 44.7449 51.2741 44.5346Z" fill="white"/>
</svg>
